<svg width="235" height="196" viewBox="0 0 235 196" fill="none" xmlns="http://www.w3.org/2000/svg">
<g clip-path="url(#clip0_102_3)">
<path d="M187.606 35.7019C186.386 49.5335 182.908 64.1182 177.454 78.1905C170.709 95.5928 161.493 110.921 150.803 122.517L150.21 121.985C160.848 110.444 170.022 95.1843 176.738 77.854C182.809 62.193 186.419 45.8953 187.185 30.7301L187.943 30.8606C187.862 32.4622 187.75 34.076 187.606 35.7019Z" fill="#F2F2F2"/>
<path d="M192.469 116.033C177.454 140.597 159.238 158.148 141.177 165.453L140.811 164.764C158.748 157.51 176.857 140.049 191.803 115.597L192.469 116.033Z" fill="#F2F2F2"/>
<path d="M187.242 52.9228C186.021 66.7545 182.543 81.3392 177.089 95.4115C170.344 112.814 161.129 128.142 150.439 139.738L149.846 139.206C160.484 127.665 169.657 112.405 176.374 95.0749C182.444 79.4139 186.055 63.1162 186.82 47.951L187.578 48.0815C187.498 49.6832 187.386 51.2969 187.242 52.9228Z" fill="#F2F2F2"/>
<path d="M18.686 88.4328H8.83477C8.6243 88.4333 8.41645 88.3847 8.22683 88.2908C8.03722 88.1969 7.87074 88.06 7.73989 87.8905C7.61063 87.7253 7.51944 87.5321 7.47315 87.3255C7.42686 87.1188 7.42669 86.9041 7.47264 86.6974C8.41088 82.4402 8.35193 78.0146 7.30067 73.7854C7.23418 73.507 7.25026 73.2144 7.34684 72.9454C7.44342 72.6764 7.61607 72.4433 7.84259 72.2761C12.9081 68.5297 16.8974 68.6384 19.6997 72.5998C19.826 72.7804 19.9099 72.9886 19.9449 73.2081C20.6936 77.8369 20.7351 82.5576 20.0677 87.1996C20.0213 87.5422 19.8558 87.8559 19.6017 88.0826C19.3477 88.3094 19.0224 88.4338 18.686 88.4328Z" fill="#E6E6E6"/>
<path d="M15.6319 78.288H12.2431C12.0557 78.288 11.876 78.2115 11.7434 78.0752C11.6109 77.9389 11.5365 77.7541 11.5365 77.5614C11.5365 77.3687 11.6109 77.1839 11.7434 77.0476C11.876 76.9114 12.0557 76.8348 12.2431 76.8348H15.6319C15.8191 76.8352 15.9984 76.912 16.1306 77.0482C16.2628 77.1844 16.337 77.369 16.337 77.5614C16.337 77.7539 16.2628 77.9384 16.1306 78.0747C15.9984 78.2109 15.8191 78.2876 15.6319 78.288Z" fill="white"/>
<path d="M15.6319 80.8363H12.2431C12.0557 80.8363 11.876 80.7597 11.7434 80.6234C11.6109 80.4872 11.5365 80.3024 11.5365 80.1097C11.5365 79.9169 11.6109 79.7321 11.7434 79.5959C11.876 79.4596 12.0557 79.3831 12.2431 79.3831H15.6319C15.8191 79.3835 15.9984 79.4602 16.1306 79.5964C16.2628 79.7326 16.337 79.9172 16.337 80.1097C16.337 80.3021 16.2628 80.4867 16.1306 80.6229C15.9984 80.7591 15.8191 80.8359 15.6319 80.8363Z" fill="white"/>
<path d="M15.6319 83.3845H12.2431C12.0557 83.3845 11.876 83.3079 11.7434 83.1717C11.6109 83.0354 11.5365 82.8506 11.5365 82.6579C11.5365 82.4652 11.6109 82.2804 11.7434 82.1441C11.876 82.0079 12.0557 81.9313 12.2431 81.9313H15.6319C15.8191 81.9317 15.9984 82.0084 16.1306 82.1447C16.2628 82.2809 16.337 82.4655 16.337 82.6579C16.337 82.8503 16.2628 83.0349 16.1306 83.1712C15.9984 83.3074 15.8191 83.3841 15.6319 83.3845Z" fill="white"/>
<path d="M197.723 133.664H187.872C187.661 133.665 187.453 133.616 187.264 133.522C187.074 133.428 186.908 133.291 186.777 133.122C186.648 132.957 186.556 132.763 186.51 132.557C186.464 132.35 186.464 132.135 186.51 131.929C187.448 127.671 187.389 123.246 186.338 119.017C186.271 118.738 186.287 118.446 186.384 118.177C186.48 117.908 186.653 117.675 186.88 117.507C191.945 113.761 195.934 113.87 198.737 117.831C198.863 118.012 198.947 118.22 198.982 118.439C199.731 123.068 199.772 127.789 199.105 132.431C199.058 132.774 198.893 133.087 198.639 133.314C198.385 133.541 198.059 133.665 197.723 133.664Z" fill="#E6E6E6"/>
<path d="M194.669 123.519H191.28C191.093 123.519 190.914 123.442 190.781 123.306C190.649 123.17 190.575 122.985 190.575 122.793C190.575 122.6 190.649 122.416 190.781 122.279C190.914 122.143 191.093 122.067 191.28 122.066H194.669C194.856 122.066 195.036 122.143 195.169 122.279C195.301 122.415 195.375 122.6 195.375 122.793C195.375 122.985 195.301 123.17 195.169 123.306C195.036 123.443 194.856 123.519 194.669 123.519Z" fill="white"/>
<path d="M194.669 126.068H191.28C191.093 126.067 190.914 125.99 190.781 125.854C190.649 125.718 190.575 125.533 190.575 125.341C190.575 125.148 190.649 124.964 190.781 124.828C190.914 124.691 191.093 124.615 191.28 124.614H194.669C194.856 124.614 195.036 124.691 195.169 124.827C195.301 124.963 195.375 125.148 195.375 125.341C195.375 125.534 195.301 125.718 195.169 125.855C195.036 125.991 194.856 126.068 194.669 126.068Z" fill="white"/>
<path d="M194.669 128.616H191.28C191.093 128.615 190.914 128.539 190.781 128.402C190.649 128.266 190.575 128.082 190.575 127.889C190.575 127.697 190.649 127.512 190.781 127.376C190.914 127.24 191.093 127.163 191.28 127.163H194.669C194.856 127.163 195.036 127.239 195.169 127.375C195.301 127.512 195.375 127.696 195.375 127.889C195.375 128.082 195.301 128.267 195.169 128.403C195.036 128.539 194.856 128.616 194.669 128.616Z" fill="white"/>
<path d="M235 195.621C235 195.671 234.991 195.72 234.972 195.766C234.954 195.812 234.927 195.854 234.892 195.889C234.858 195.925 234.817 195.952 234.773 195.971C234.728 195.99 234.68 196 234.631 196H0.368606C0.270846 196 0.177093 195.96 0.107966 195.889C0.0388393 195.818 0 195.721 0 195.621C0 195.52 0.0388393 195.424 0.107966 195.353C0.177093 195.282 0.270846 195.242 0.368606 195.242H234.631C234.68 195.242 234.728 195.251 234.773 195.27C234.817 195.289 234.858 195.317 234.892 195.353C234.927 195.388 234.954 195.43 234.972 195.476C234.991 195.522 235 195.571 235 195.621Z" fill="#CCCCCC"/>
<path d="M61.7968 172.413L61.1824 163.625C57.1576 161.556 52.7026 160.529 48.2041 160.632C54.5329 165.663 54.0259 175.717 58.4089 182.598C59.792 184.733 61.6245 186.521 63.7708 187.829C65.9171 189.137 68.3221 189.932 70.8076 190.154L76.0747 193.27C76.6772 189.175 76.4092 184.994 75.2892 181.016C74.1692 177.038 72.2239 173.356 69.5871 170.226C68.091 168.484 66.3876 166.944 64.5171 165.64C63.3659 169.039 61.7968 172.413 61.7968 172.413Z" fill="#F2F2F2"/>
<path d="M173.203 173.687L173.818 164.899C177.842 162.83 182.297 161.803 186.796 161.906C180.467 166.937 180.974 176.991 176.591 183.872C175.208 186.007 173.376 187.795 171.229 189.103C169.083 190.411 166.678 191.206 164.192 191.428L158.925 194.544C158.323 190.449 158.591 186.268 159.711 182.29C160.831 178.312 162.776 174.63 165.413 171.5C166.909 169.758 168.612 168.218 170.483 166.914C171.634 170.313 173.203 173.687 173.203 173.687Z" fill="#F2F2F2"/>
<path d="M114.712 74.5177C117.963 74.5177 120.598 71.8081 120.598 68.4656C120.598 65.1231 117.963 62.4135 114.712 62.4135C111.462 62.4135 108.827 65.1231 108.827 68.4656C108.827 71.8081 111.462 74.5177 114.712 74.5177Z" fill="#FF0000"/>
<path d="M117.733 65.9433C117.645 65.8565 117.527 65.808 117.405 65.808C117.283 65.808 117.165 65.8565 117.076 65.9433C115.828 66.9675 114.706 68.1456 113.737 69.4512C113.499 68.9778 113.261 68.5043 113.023 68.0308C112.748 67.4843 111.946 67.9671 112.22 68.5131C112.568 69.2057 112.917 69.8982 113.265 70.5907C113.307 70.6614 113.365 70.7198 113.436 70.7603C113.506 70.8009 113.585 70.8222 113.666 70.8222C113.746 70.8222 113.826 70.8009 113.896 70.7603C113.966 70.7198 114.025 70.6614 114.067 70.5907C115.1 69.0948 116.334 67.7575 117.733 66.619C117.82 66.5291 117.868 66.4077 117.868 66.2812C117.868 66.1547 117.82 66.0333 117.733 65.9433Z" fill="white"/>
<path d="M88.3785 85.6271L79.5037 71.2946L89.7806 65.6349L92.4779 76.5699L111.483 87.1307C112.233 86.853 113.046 86.8059 113.822 86.9949C114.598 87.184 115.303 87.6012 115.853 88.1955C116.402 88.7899 116.772 89.5358 116.916 90.3423C117.06 91.1488 116.973 91.981 116.665 92.7376C116.358 93.4941 115.842 94.1421 115.183 94.6028C114.523 95.0634 113.747 95.3167 112.95 95.3318C112.153 95.3468 111.368 95.123 110.692 94.6876C110.017 94.2522 109.479 93.624 109.144 92.8797L88.3785 85.6271Z" fill="#A0616A"/>
<path d="M73.0196 54.1042C70.2311 58.3144 80.1408 73.6182 80.1408 73.6182C80.6236 72.5481 85.2384 84.5648 86.0113 83.855C88.2081 81.8375 91.647 76.2178 93.5585 75.9673C94.6516 75.824 91.0232 67.8516 91.0232 67.8516C91.0232 67.8516 89.3649 63.144 87.1147 57.1303C86.5092 55.4181 85.4922 53.8912 84.1585 52.6918C82.8248 51.4924 81.2177 50.6595 79.4867 50.2706C79.4867 50.2706 75.8082 49.894 73.0196 54.1042Z" fill="#3F3D56"/>
<path d="M73.1558 191.275L77.3706 191.274L79.3757 174.556L73.1549 174.556L73.1558 191.275Z" fill="#A0616A"/>
<path d="M72.0806 189.859L73.2669 189.859L77.8987 187.922L80.3812 189.859H80.3815C81.7844 189.859 83.1298 190.432 84.1218 191.452C85.1138 192.472 85.6712 193.856 85.6713 195.299V195.475L72.0808 195.476L72.0806 189.859Z" fill="#2F2E41"/>
<path d="M92.7372 191.275L96.952 191.274L98.9573 174.556L92.7366 174.556L92.7372 191.275Z" fill="#A0616A"/>
<path d="M91.662 189.859L92.8483 189.859L97.4801 187.922L99.9626 189.859H99.9629C101.366 189.859 102.711 190.432 103.703 191.452C104.695 192.472 105.253 193.856 105.253 195.299V195.475L91.6622 195.476L91.662 189.859Z" fill="#2F2E41"/>
<path d="M94.5615 99.8757L67.1462 100.58C61.9394 103.489 61.8604 109.783 63.5664 117.256C63.5664 117.256 62.9905 121.698 64.1423 122.883C65.2942 124.067 65.8701 124.067 65.2942 126.14C64.7183 128.213 67.7611 131.598 67.3916 131.979C67.022 132.359 66.1581 134.431 66.1581 134.431L69.0377 151.31C69.0377 151.31 71.0534 180.627 71.6294 181.219C72.2053 181.811 72.7812 181.219 72.2053 182.7C71.6294 184.18 71.0534 183.588 71.6294 184.18C72.1395 184.746 72.6201 185.339 73.0692 185.957H80.0313C80.0313 185.957 80.5562 182.996 80.5562 182.7C80.5562 182.403 81.1322 180.627 81.1322 180.331C81.1322 180.034 80.6231 179.511 80.6231 179.511C80.4472 178.909 80.3284 178.291 80.2683 177.665C80.2683 177.073 78.5405 154.272 78.5405 154.272L81.996 124.659L90.347 153.679C90.347 153.679 90.347 179.146 90.9229 179.738C91.4988 180.331 91.4988 180.034 91.2109 181.219C90.9229 182.403 89.771 182.107 90.6349 182.996C91.4988 183.884 91.7868 182.403 91.4988 183.884L91.2109 185.365L99.8498 185.492C99.8498 185.492 101.002 182.996 100.426 182.107C99.8498 181.219 99.8843 181.461 100.587 180.008C101.29 178.554 101.578 178.258 101.29 177.962C101.002 177.665 101.002 176.09 101.002 176.09L99.5618 147.757C99.5618 147.757 99.2738 117.849 99.2738 116.96C99.2521 116.503 99.334 116.047 99.5131 115.628V114.422L98.41 110.149L94.5615 99.8757Z" fill="#2F2E41"/>
<path d="M78.0928 41.2544C82.7972 41.2544 86.6109 37.3327 86.6109 32.4949C86.6109 27.6572 82.7972 23.7354 78.0928 23.7354C73.3884 23.7354 69.5747 27.6572 69.5747 32.4949C69.5747 37.3327 73.3884 41.2544 78.0928 41.2544Z" fill="#A0616A"/>
<path d="M82.3518 47.0438C84.1869 48.1657 85.2847 50.227 85.9149 52.3246C87.0815 56.2081 87.7838 60.2232 88.0061 64.2813L88.6717 76.4305L96.915 102.3C89.7708 108.516 62.9168 103.712 62.9168 103.712C62.9168 103.712 62.0924 103.43 62.9168 102.582C63.7411 101.734 64.5436 102.485 63.7193 101.638C62.895 100.79 63.4632 101.734 63.738 100.887C64.0128 100.039 63.738 100.604 63.4632 100.322C63.1884 100.039 65.5904 97.4959 65.5904 97.4959L63.3922 82.6468L60.6444 52.6951C63.9418 48.4566 70.5731 45.9581 70.5731 45.9581L72.2866 42.7864L80.8539 43.4912L82.3518 47.0438Z" fill="#3F3D56"/>
<path d="M85.1146 27.8411C85.7767 28.3489 86.2671 29.0574 86.517 29.8669C86.613 28.544 86.6191 27.2159 86.5353 25.8921C86.4349 24.9619 85.798 24.7526 85.0606 24.5102C84.3946 24.2911 83.6415 24.0437 83.4388 23.1407C80.7612 20.462 76.1001 20.5971 72.9101 21.5315C71.1548 22.0456 70.1448 22.7062 70.0544 23.0932L70.0357 23.1728L69.9644 23.2095C68.6114 23.9052 68.348 26.102 68.3654 27.8224C68.3984 31.0637 69.4867 34.745 70.0998 35.0441C70.1322 35.0599 70.1404 35.0537 70.1545 35.0417C71.0777 34.283 72.204 35.0993 72.6989 35.5431C72.9909 33.5285 73.9309 31.6727 75.3688 30.272C76.8067 28.8713 78.6596 28.0065 80.6315 27.8157C81.2755 27.7517 81.9144 27.6415 82.5434 27.486C82.8625 27.4011 83.1905 27.3569 83.5201 27.3542C84.0875 27.3454 84.6439 27.5153 85.1146 27.8411Z" fill="#2F2E41"/>
<path d="M137.994 106.855L154.38 89.7446L158.697 76.0595L151.75 73.1699C148.308 76.7396 144.766 87.6677 144.766 87.6677L133.582 103.103C133.492 103.137 133.403 103.173 133.316 103.216C132.801 103.466 132.357 103.848 132.028 104.326C131.699 104.804 131.495 105.361 131.436 105.943C131.378 106.526 131.466 107.114 131.693 107.651C131.92 108.188 132.278 108.656 132.732 109.009C133.186 109.362 133.721 109.589 134.285 109.668C134.85 109.746 135.424 109.674 135.953 109.457C136.482 109.241 136.948 108.887 137.305 108.432C137.663 107.976 137.9 107.433 137.994 106.855Z" fill="#FFB8B8"/>
<path d="M149.854 74.7354L158.64 77.3489L158.673 77.3424C161.902 76.6976 164.457 71.1787 166.031 66.6625C166.549 65.1729 166.497 63.5367 165.887 62.0846C165.277 60.6325 164.153 59.4729 162.743 58.8402C161.7 58.3807 160.552 58.2304 159.431 58.4063C158.309 58.5822 157.257 59.0773 156.395 59.8357L152.014 63.7145L149.854 74.7354Z" fill="#FF0000"/>
<path d="M142.338 190.766L137.613 190.766L135.365 172.025L142.338 172.025L142.338 190.766Z" fill="#FFB8B8"/>
<path d="M143.543 189.18L142.213 189.18L137.021 187.008L134.238 189.179H134.238C132.665 189.179 131.157 189.822 130.045 190.965C128.933 192.109 128.308 193.66 128.308 195.277V195.475L143.543 195.476L143.543 189.18Z" fill="#2F2E41"/>
<path d="M163.303 190.766L158.578 190.766L156.33 172.025L163.304 172.025L163.303 190.766Z" fill="#FFB8B8"/>
<path d="M164.508 189.18L163.178 189.18L157.986 187.008L155.203 189.179H155.203C153.63 189.179 152.122 189.822 151.01 190.965C149.898 192.109 149.273 193.66 149.273 195.277V195.475L164.508 195.476L164.508 189.18Z" fill="#2F2E41"/>
<path d="M170.507 110.042C170.507 110.042 171.059 116.851 169.68 123.375C168.3 129.9 168.3 148.275 168.3 148.275L165.266 184.081L156.163 183.23L153.68 123.375L144.853 143.516L145.68 146.353L144.578 147.062C144.578 147.062 145.404 152.593 144.853 152.593C144.301 152.593 142.922 153.444 142.922 153.444L144.025 182.663L134.646 182.379L131.336 141.246L134.922 117.702L135.198 113.163L136.439 113.215L137.071 111.319L138.232 108.057L170.507 110.042Z" fill="#2F2E41"/>
<path d="M170.984 111.472L171.033 111.402C173.659 107.621 169.71 98.5374 169.114 97.2205L171.623 96.3834L171.058 91.4453L170.79 89.2438L172.708 87.2721L172.713 87.2229L173.817 77.2943L175.421 70.6999C176.026 68.207 175.974 65.5935 175.272 63.1278C174.57 60.6621 173.242 58.433 171.425 56.6693L167.717 53.0737L163.21 46.2161H155.942L153.45 51.0566C151.034 51.6308 148.89 53.0584 147.393 55.0907C145.895 57.1231 145.138 59.6313 145.254 62.1785L145.818 74.8736L143.607 90.68L143.606 93.5406L141.118 96.3842L141.661 99.1779L139.768 100.012L138.931 104.025C138.585 104.494 136.301 107.626 136.301 108.482C136.301 108.611 136.394 108.735 136.592 108.873C138.148 109.957 146.751 112.166 150.559 110.6C154.615 108.932 170.738 111.434 170.9 111.459L170.984 111.472Z" fill="#FF0000"/>
<path d="M158.637 44.0024C163.953 44.0024 168.262 39.5709 168.262 34.1043C168.262 28.6377 163.953 24.2061 158.637 24.2061C153.321 24.2061 149.011 28.6377 149.011 34.1043C149.011 39.5709 153.321 44.0024 158.637 44.0024Z" fill="#FFB8B8"/>
<path d="M157.715 44.1627C159.205 44.147 160.692 44.0004 162.158 43.7246C163.61 43.3806 166.813 40.8337 167.686 39.329C168.335 38.2111 168.724 36.4819 168.936 35.2282C169.223 33.5691 169.168 31.8665 168.774 30.2307C168.38 28.5949 167.657 27.0624 166.651 25.7324C166.263 25.1752 165.736 24.7362 165.125 24.4618C165.071 24.4417 165.015 24.4242 164.959 24.4093C164.074 24.1948 163.272 23.7131 162.655 23.0261C162.535 22.8871 162.406 22.757 162.268 22.6371C161.576 22.0672 160.762 21.6739 159.894 21.4892C158.491 21.1428 156.485 21.5769 153.93 22.7806C152.647 23.3853 151.222 23.2166 150.124 23.002C150.063 22.9915 150 22.9977 149.941 23.0201C149.883 23.0424 149.831 23.0802 149.791 23.1295C149.338 23.5902 148.732 23.8575 148.095 23.8776C147.705 23.9056 147.309 24.4721 146.833 25.2098C146.725 25.3772 146.598 25.5727 146.507 25.6919L146.488 25.468L146.274 25.7241C145.937 26.1266 145.704 26.6103 145.598 27.1301C145.492 27.6499 145.515 28.189 145.666 28.6971C145.816 29.2052 146.09 29.6658 146.46 30.036C146.831 30.4062 147.286 30.674 147.784 30.8144C148.18 30.9114 148.583 30.9666 148.99 30.9792C149.236 30.9954 149.491 31.0122 149.735 31.0492C150.521 31.193 151.257 31.5439 151.871 32.0676C152.486 32.5912 152.958 33.2698 153.241 34.037C153.308 34.2143 153.414 34.3734 153.55 34.5021C153.686 34.6308 153.849 34.7255 154.026 34.7791C154.204 34.8326 154.391 34.8435 154.573 34.8109C154.755 34.7783 154.928 34.7031 155.077 34.5911C155.326 34.3812 155.62 34.2363 155.935 34.1686C156.25 34.101 156.576 34.1127 156.885 34.2027C157.154 34.3473 157.367 34.5828 157.487 34.8695C157.633 35.1886 157.868 35.4559 158.162 35.6372C159.164 36.1353 159.29 38.4564 158.984 40.4022C158.688 42.2778 158.045 43.646 157.42 43.7294C156.939 43.7935 156.885 43.8302 156.852 43.9189L156.823 43.9983L156.879 44.0703C157.148 44.1625 157.433 44.194 157.715 44.1627Z" fill="#2F2E41"/>
<path d="M149.729 75.794L145.102 69.7317C140.39 71.0663 132.027 78.731 132.027 78.731L114.854 86.3947C114.281 86.2957 113.693 86.3536 113.148 86.5628C112.604 86.7719 112.122 87.1249 111.753 87.5861C111.383 88.0474 111.138 88.6006 111.043 89.1902C110.947 89.7797 111.004 90.3848 111.208 90.9444C111.412 91.504 111.756 91.9985 112.205 92.3781C112.654 92.7577 113.192 93.0089 113.766 93.1065C114.339 93.2042 114.927 93.1447 115.471 92.9342C116.015 92.7237 116.496 92.3696 116.864 91.9074L139.361 85.4535L149.729 75.794Z" fill="#FFB8B8"/>
<path d="M148.62 77.1799L155.92 68.8113L156.326 62.8815C156.401 61.7171 156.158 60.5542 155.625 59.5242C155.091 58.4942 154.288 57.6383 153.306 57.053C151.97 56.2688 150.395 56.0356 148.898 56.4005C147.401 56.7654 146.094 57.7012 145.243 59.0187C142.663 63.0164 139.888 68.4215 141.316 71.469L141.331 71.4999L148.62 77.1799Z" fill="#FF0000"/>
<path d="M81.3346 108.635L62.3609 98.642C61.0113 97.9312 60.5642 96.0459 61.3644 94.4394L73.7356 69.5992C74.5357 67.9927 76.2847 67.2639 77.6343 67.9747L96.608 77.9674C97.9576 78.6782 98.4046 80.5634 97.6045 82.17L85.2332 107.01C84.4331 108.617 82.6842 109.345 81.3346 108.635Z" fill="#E6E6E6"/>
<path d="M78.0927 104.041L65.2017 97.2518C63.9377 96.5861 63.519 94.8204 64.2683 93.3158L74.5462 72.679C75.2955 71.1744 76.9335 70.492 78.1975 71.1577L93.7672 79.3576C95.0312 80.0233 95.4498 81.7889 94.7004 83.2935L89.117 94.5045C85.7792 101.206 83.7229 107.006 78.0927 104.041Z" fill="white"/>
<path d="M84.4663 92.7712L73.0484 86.7578C72.9088 86.6556 72.8096 86.505 72.769 86.3338C72.7284 86.1625 72.749 85.9819 72.8272 85.825C72.9053 85.6681 73.0357 85.5454 73.1946 85.4792C73.3535 85.413 73.5302 85.4078 73.6925 85.4645L85.1104 91.4778C85.2501 91.5801 85.3492 91.7307 85.3898 91.9019C85.4304 92.0732 85.4098 92.2538 85.3317 92.4107C85.2535 92.5676 85.1231 92.6903 84.9642 92.7565C84.8053 92.8227 84.6286 92.8279 84.4663 92.7712Z" fill="#FF0000"/>
<path d="M74.3815 90.6855L71.7758 89.3132C71.6362 89.2109 71.537 89.0604 71.4964 88.8891C71.4558 88.7179 71.4765 88.5373 71.5546 88.3804C71.6327 88.2235 71.7632 88.1007 71.922 88.0345C72.0809 87.9683 72.2577 87.9631 72.42 88.0198L75.0257 89.3921C75.1653 89.4944 75.2644 89.6449 75.305 89.8162C75.3456 89.9875 75.325 90.168 75.2468 90.3249C75.1687 90.4819 75.0383 90.6046 74.8794 90.6708C74.7205 90.737 74.5438 90.7422 74.3815 90.6855Z" fill="#FF0000"/>
<path d="M77.7238 95.6714L70.5031 91.8686C70.3635 91.7663 70.2643 91.6158 70.2237 91.4445C70.1831 91.2732 70.2037 91.0927 70.2819 90.9358C70.36 90.7789 70.4904 90.6561 70.6493 90.5899C70.8082 90.5237 70.9849 90.5185 71.1473 90.5752L78.3679 94.378C78.5075 94.4803 78.6067 94.6308 78.6473 94.8021C78.6879 94.9734 78.6673 95.154 78.5891 95.3109C78.511 95.4678 78.3806 95.5905 78.2217 95.6567C78.0628 95.7229 77.8861 95.7282 77.7238 95.6714V95.6714Z" fill="#FF0000"/>
<path d="M88.9847 83.6989L77.5668 77.6855C77.4272 77.5832 77.328 77.4327 77.2874 77.2614C77.2468 77.0901 77.2675 76.9096 77.3456 76.7527C77.4237 76.5958 77.5542 76.473 77.713 76.4068C77.8719 76.3406 78.0487 76.3354 78.211 76.3921L89.6289 82.4055C89.7685 82.5078 89.8677 82.6583 89.9083 82.8296C89.9489 83.0008 89.9282 83.1814 89.8501 83.3383C89.7719 83.4952 89.6415 83.618 89.4827 83.6842C89.3238 83.7504 89.147 83.7556 88.9847 83.6989Z" fill="#FF0000"/>
<path d="M78.8998 81.6132L76.2941 80.2409C76.1545 80.1386 76.0553 79.988 76.0147 79.8168C75.9741 79.6455 75.9948 79.4649 76.0729 79.308C76.151 79.1511 76.2815 79.0284 76.4403 78.9622C76.5992 78.896 76.776 78.8907 76.9383 78.9474L79.544 80.3197C79.6836 80.4221 79.7827 80.5726 79.8233 80.7438C79.864 80.9151 79.8433 81.0957 79.7652 81.2526C79.687 81.4095 79.5566 81.5323 79.3977 81.5985C79.2388 81.6647 79.0621 81.6699 78.8998 81.6132Z" fill="#FF0000"/>
<path d="M82.2422 86.5991L75.0215 82.7962C74.8819 82.6939 74.7827 82.5434 74.7421 82.3721C74.7015 82.2009 74.7222 82.0203 74.8003 81.8634C74.8785 81.7065 75.0089 81.5837 75.1678 81.5175C75.3266 81.4513 75.5034 81.4461 75.6657 81.5028L82.8864 85.3057C83.026 85.408 83.1251 85.5585 83.1657 85.7298C83.2064 85.901 83.1857 86.0816 83.1076 86.2385C83.0294 86.3954 82.899 86.5182 82.7401 86.5844C82.5812 86.6506 82.4045 86.6558 82.2422 86.5991L82.2422 86.5991Z" fill="#FF0000"/>
<path d="M65.612 87.0089L61.3256 70.5991L72.78 68.3694L72.164 79.6329L87.2142 95.5688C88.011 95.5353 88.8 95.741 89.4851 96.1606C90.1702 96.5803 90.7217 97.1959 91.0725 97.9323C91.4232 98.6688 91.558 99.4943 91.4605 100.308C91.3629 101.122 91.0371 101.889 90.5229 102.516C90.0087 103.143 89.3283 103.602 88.5646 103.838C87.8009 104.074 86.9869 104.076 86.2219 103.845C85.4569 103.613 84.774 103.158 84.2563 102.534C83.7387 101.91 83.4087 101.145 83.3066 100.332L65.612 87.0089Z" fill="#A0616A"/>
<path d="M60.1534 52.2003C56.2653 55.3568 61.2556 73.0123 61.2556 73.0123C62.0283 72.1404 62.9261 85.0272 63.8705 84.5884C66.5545 83.3413 71.4741 79.0408 73.3706 79.3913C74.4552 79.5918 73.3189 70.8674 73.3189 70.8674C73.3189 70.8674 73.1099 65.8649 72.7171 59.4342C72.6388 57.614 72.114 55.8437 71.1915 54.2882C70.2689 52.7327 68.9787 51.4425 67.4408 50.5377C67.4408 50.5377 64.0414 49.0439 60.1534 52.2003Z" fill="#3F3D56"/>
<path d="M124.847 123.432L114.493 118.404C114.272 118.297 114.077 118.14 113.923 117.945C113.769 117.749 113.66 117.52 113.604 117.275C113.548 117.036 113.545 116.786 113.597 116.545C113.648 116.304 113.751 116.079 113.899 115.885C116.898 111.943 118.958 107.334 119.912 102.426C119.984 102.05 120.181 101.712 120.469 101.468C120.756 101.225 121.117 101.092 121.49 101.091C126.77 101.11 130.717 103.092 133.219 106.984C133.351 107.186 133.439 107.416 133.476 107.656C133.512 107.897 133.498 108.143 133.433 108.377C131.984 113.513 129.779 118.391 126.894 122.841C126.68 123.177 126.355 123.422 125.978 123.531C125.602 123.64 125.2 123.604 124.847 123.432Z" fill="#E6E6E6"/>
<path d="M127.893 116.38L119.976 112.536C119.779 112.44 119.627 112.268 119.554 112.057C119.48 111.846 119.491 111.614 119.584 111.412C119.677 111.209 119.845 111.053 120.05 110.977C120.255 110.902 120.48 110.913 120.677 111.009L128.594 114.853C128.692 114.9 128.779 114.967 128.852 115.049C128.924 115.131 128.98 115.227 129.017 115.331C129.053 115.436 129.069 115.547 129.064 115.657C129.058 115.768 129.032 115.877 128.986 115.977C128.94 116.077 128.875 116.167 128.795 116.242C128.715 116.316 128.622 116.374 128.521 116.411C128.419 116.449 128.311 116.465 128.204 116.46C128.096 116.455 127.99 116.427 127.893 116.38H127.893Z" fill="white"/>
<path d="M129.123 113.702L121.206 109.858C121.009 109.762 120.857 109.59 120.784 109.379C120.71 109.168 120.721 108.936 120.814 108.733C120.907 108.531 121.074 108.375 121.279 108.299C121.484 108.223 121.71 108.235 121.907 108.33L129.824 112.175C130.021 112.27 130.173 112.442 130.246 112.653C130.32 112.864 130.309 113.096 130.216 113.299C130.123 113.501 129.955 113.658 129.75 113.733C129.545 113.809 129.32 113.798 129.123 113.702V113.702Z" fill="white"/>
<path d="M118.544 29.6281L117.807 29.7111C114.522 16.4334 108.153 7.23473 99.3889 3.1094C88.2478 -2.13463 74.4714 1.38683 60.5973 13.0252C46.6527 24.7231 34.3081 43.2006 25.8377 65.0549L25.1227 64.7184C33.6303 42.7686 46.0382 24.2018 60.0609 12.439C74.154 0.616663 88.2116 -2.93062 99.6441 2.45071C108.659 6.69426 115.195 16.0921 118.544 29.6281Z" fill="#F2F2F2"/>
<path d="M37.2421 46.9206C35.315 51.0955 33.4819 55.4207 31.7938 59.7759C22.0798 84.8385 17.1572 110.434 17.5595 133.797L16.8003 133.714C16.3976 110.264 21.3344 84.5802 31.0788 59.4394C32.7717 55.0719 34.61 50.7345 36.5427 46.5479L37.2421 46.9206Z" fill="#F2F2F2"/>
<path d="M36.8778 64.1416C34.9506 68.3164 33.1175 72.6416 31.4295 76.9968C21.7155 102.059 16.7928 127.655 17.1951 151.018L16.4359 150.935C16.0332 127.485 20.97 101.801 30.7144 76.6603C32.4073 72.2928 34.2456 67.9554 36.1783 63.7688L36.8778 64.1416Z" fill="#F2F2F2"/>
<path d="M16.4724 70.4045C17.3117 69.1073 16.8149 67.2504 15.3629 66.257C13.9109 65.2636 12.0534 65.5099 11.2142 66.8071C10.3749 68.1043 10.8717 69.9612 12.3237 70.9546C13.7757 71.948 15.6332 71.7018 16.4724 70.4045Z" fill="#CCCCCC"/>
<path d="M195.182 117.25C196.021 115.953 195.524 114.096 194.072 113.103C192.62 112.11 190.763 112.356 189.923 113.653C189.084 114.95 189.581 116.807 191.033 117.801C192.485 118.794 194.342 118.548 195.182 117.25Z" fill="#CCCCCC"/>
</g>
<defs>
<clipPath id="clip0_102_3">
<rect width="235" height="196" fill="white"/>
</clipPath>
</defs>
</svg>
