<svg width="318" height="318" viewBox="0 0 318 318" fill="none" xmlns="http://www.w3.org/2000/svg">
<path d="M235.18 0H82.24C36.82 0 0 36.82 0 82.24V235.18C0 280.6 36.82 317.42 82.24 317.42H235.18C280.6 317.42 317.42 280.6 317.42 235.18V82.24C317.42 36.82 280.6 0 235.18 0Z" fill="#FF0000"/>
<path d="M25.48 268.56H87.83L147.28 209.13L116.09 177.95L25.48 268.56Z" fill="white"/>
<path d="M291.94 131.5C291.94 108.69 282.68 88.0099 267.74 73.0599C252.79 58.1099 232.11 48.8599 209.3 48.8599H116.1V92.9399H209.3C230.57 92.9399 247.87 110.24 247.87 131.51C247.87 152.78 230.57 170.08 209.3 170.08H186.16H167.87H123.81L145.83 192.1L167.89 214.16L222.3 268.57H284.65L228.09 212.01C264.67 203.49 291.94 170.67 291.94 131.5Z" fill="white"/>
<path d="M146.34 238.25C150 238.25 152.96 241.22 152.96 244.87V251.49H139.71V244.87C139.72 241.22 142.68 238.25 146.34 238.25Z" fill="white"/>
<path d="M163.4 238.25C167.06 238.25 170.02 241.22 170.02 244.87V251.49H156.77V244.87C156.78 241.22 159.74 238.25 163.4 238.25Z" fill="white"/>
<path d="M152.97 255.31H139.72V268.56H152.97V255.31Z" fill="white"/>
<path d="M170.03 255.31H156.78V268.56H170.03V255.31Z" fill="white"/>
</svg>
