<svg width="473" height="88" viewBox="0 0 473 88" fill="none" xmlns="http://www.w3.org/2000/svg">
<path d="M106.36 70.8799V12.9299H128.09C134.75 12.9299 139.82 14.6399 143.3 18.0499C146.78 21.4599 148.52 25.9399 148.52 31.4599C148.52 35.3999 147.63 38.7899 145.86 41.6199C144.09 44.4499 141.5 46.5399 138.11 47.8999L150.65 70.8799H138.94L127.56 49.6599H116.86V70.8799H106.36ZM116.86 40.9399H126.54C130.43 40.9399 133.28 40.1299 135.1 38.5099C136.92 36.8899 137.83 34.5399 137.83 31.4599C137.83 28.3699 136.92 25.9699 135.1 24.2599C133.28 22.5499 130.41 21.6999 126.48 21.6999H116.86V40.9399V40.9399Z" fill="white"/>
<path d="M176.37 71.73C172.01 71.73 168.25 70.82 165.09 68.99C161.93 67.16 159.5 64.58 157.8 61.24C156.1 57.9 155.25 53.96 155.25 49.41C155.25 44.94 156.1 41.01 157.8 37.62C159.5 34.23 161.89 31.59 164.97 29.7C168.05 27.8 171.67 26.86 175.82 26.86C179.39 26.86 182.68 27.63 185.7 29.17C188.72 30.71 191.14 33.09 192.96 36.33C194.78 39.57 195.69 43.73 195.69 48.82V51.96H165.41C165.47 55.68 166.5 58.57 168.51 60.65C170.52 62.73 173.18 63.76 176.5 63.76C178.71 63.76 180.62 63.28 182.23 62.33C183.84 61.38 185 59.99 185.7 58.16L195.27 59.24C194.36 63.01 192.26 66.04 188.95 68.32C185.63 70.59 181.44 71.73 176.37 71.73ZM165.44 45.05H185.87C185.85 42.09 184.93 39.65 183.11 37.72C181.29 35.8 178.91 34.83 175.96 34.83C172.9 34.83 170.42 35.84 168.52 37.86C166.62 39.88 165.59 42.27 165.44 45.05Z" fill="white"/>
<path d="M214.6 45.41V70.8799H204.36V27.41H214.15V34.8H214.66C215.66 32.39 217.26 30.4599 219.46 29.0099C221.66 27.5699 224.38 26.85 227.62 26.85C232.11 26.85 235.72 28.27 238.44 31.12C241.17 33.97 242.52 38 242.5 43.2V70.8799H232.26V44.79C232.26 41.88 231.51 39.61 230.01 37.97C228.51 36.33 226.44 35.5099 223.8 35.5099C221.1 35.5099 218.89 36.37 217.18 38.1C215.46 39.83 214.6 42.26 214.6 45.41Z" fill="white"/>
<path d="M274.64 27.42V35.34H266.07V57.81C266.07 59.87 266.52 61.22 267.43 61.87C268.34 62.52 269.43 62.85 270.71 62.85C271.35 62.85 271.94 62.8 272.48 62.71C273.02 62.62 273.43 62.53 273.71 62.45L275.44 70.46C274.89 70.65 274.11 70.86 273.11 71.08C272.1 71.31 270.87 71.44 269.42 71.48C265.57 71.59 262.34 70.65 259.73 68.65C257.12 66.65 255.82 63.6 255.84 59.51V35.34H249.67V27.42H255.84V17H266.08V27.41H274.64V27.42Z" fill="white"/>
<path d="M289.22 87.8C287.73 87.8 286.43 87.67 285.32 87.4C284.21 87.14 283.36 86.88 282.77 86.64L285.15 78.4301C287.39 79.0701 289.28 79.18 290.8 78.77C292.32 78.35 293.56 76.95 294.52 74.55L295.54 71.78L279.78 27.41H290.65L300.67 60.2401H301.12L311.17 27.41H322.06L304.52 76.53C303.31 79.94 301.45 82.68 298.95 84.72C296.41 86.78 293.18 87.8 289.22 87.8Z" fill="white"/>
<path d="M331.58 70.8799H320.37L340.77 12.9299H353.73L374.16 70.8799H362.95L358.14 56.5899H336.35L331.58 70.8799ZM339.19 48.1599H355.32L347.48 24.8099H347.03L339.19 48.1599Z" fill="white"/>
<path d="M381.35 87.18V27.42H391.42V34.61H392.01C392.54 33.55 393.28 32.43 394.23 31.23C395.18 30.03 396.48 29 398.14 28.15C399.79 27.29 401.89 26.86 404.44 26.86C407.8 26.86 410.83 27.72 413.54 29.44C416.25 31.16 418.4 33.68 419.99 36.99C421.58 40.31 422.38 44.39 422.38 49.22C422.38 53.99 421.6 58.05 420.03 61.39C418.46 64.73 416.33 67.28 413.63 69.03C410.93 70.79 407.88 71.66 404.46 71.66C401.97 71.66 399.9 71.24 398.26 70.41C396.62 69.58 395.3 68.58 394.31 67.4C393.32 66.22 392.55 65.1 392 64.05H391.58V87.2H381.35V87.18ZM391.4 49.15C391.4 53.36 392.29 56.76 394.06 59.35C395.83 61.94 398.35 63.24 401.62 63.24C405 63.24 407.56 61.91 409.32 59.25C411.08 56.59 411.95 53.22 411.95 49.15C411.95 45.09 411.08 41.76 409.35 39.16C407.61 36.56 405.04 35.26 401.62 35.26C398.32 35.26 395.79 36.52 394.04 39.04C392.28 41.55 391.4 44.92 391.4 49.15Z" fill="white"/>
<path d="M431.13 87.18V27.42H441.2V34.61H441.79C442.32 33.55 443.06 32.43 444.01 31.23C444.96 30.03 446.26 29 447.91 28.15C449.56 27.29 451.66 26.86 454.21 26.86C457.57 26.86 460.6 27.72 463.31 29.44C466.02 31.16 468.17 33.68 469.76 36.99C471.35 40.31 472.15 44.39 472.15 49.22C472.15 53.99 471.37 58.05 469.8 61.39C468.23 64.73 466.1 67.28 463.4 69.03C460.7 70.79 457.65 71.66 454.23 71.66C451.74 71.66 449.67 71.24 448.03 70.41C446.39 69.58 445.07 68.58 444.08 67.4C443.09 66.22 442.32 65.1 441.77 64.05H441.35V87.2H431.13V87.18ZM441.17 49.15C441.17 53.36 442.06 56.76 443.83 59.35C445.6 61.94 448.12 63.24 451.39 63.24C454.77 63.24 457.33 61.91 459.09 59.25C460.85 56.59 461.72 53.22 461.72 49.15C461.72 45.09 460.85 41.76 459.12 39.16C457.38 36.56 454.81 35.26 451.39 35.26C448.09 35.26 445.56 36.52 443.81 39.04C442.05 41.55 441.17 44.92 441.17 49.15Z" fill="white"/>
<path d="M62.1 0H21.72C9.73 0 0 9.72 0 21.72V62.1C0 74.09 9.72 83.82 21.72 83.82H62.1C74.09 83.82 83.82 74.1 83.82 62.1V21.72C83.82 9.72 74.1 0 62.1 0Z" fill="white"/>
<path d="M6.72998 70.91H23.19L38.89 55.22L30.66 46.98L6.72998 70.91Z" fill="#FF0000"/>
<path d="M77.09 34.72C77.09 28.7 74.65 23.24 70.7 19.29C66.75 15.34 61.29 12.9 55.27 12.9H30.66V24.54H55.27C60.89 24.54 65.45 29.11 65.45 34.72C65.45 40.34 60.88 44.9 55.27 44.9H49.16H44.33H32.7L38.51 50.71L44.33 56.53L58.7 70.9H75.16L60.22 55.96C69.89 53.73 77.09 45.06 77.09 34.72Z" fill="#FF0000"/>
<path d="M38.64 62.91C39.61 62.91 40.39 63.69 40.39 64.66V66.41H36.89V64.66C36.89 63.69 37.68 62.91 38.64 62.91Z" fill="#FF0000"/>
<path d="M43.15 62.91C44.12 62.91 44.9 63.69 44.9 64.66V66.41H41.4V64.66C41.4 63.69 42.18 62.91 43.15 62.91Z" fill="#FF0000"/>
<path d="M40.39 67.41H36.89V70.91H40.39V67.41Z" fill="#FF0000"/>
<path d="M44.9 67.41H41.4V70.91H44.9V67.41Z" fill="#FF0000"/>
</svg>
