<svg width="643" height="448" viewBox="0 0 643 448" fill="none" xmlns="http://www.w3.org/2000/svg">
<g clip-path="url(#clip0_116_14)">
<path d="M613.072 87.0635H29.9281C21.9934 87.0545 14.3863 83.8985 8.77563 78.2878C3.16497 72.6772 0.00895428 65.0701 -7.62939e-06 57.1354V29.9281C0.00895428 21.9934 3.16497 14.3863 8.77563 8.77563C14.3863 3.16497 21.9934 0.00896456 29.9281 0H613.072C621.007 0.00896192 628.614 3.16496 634.224 8.77562C639.835 14.3863 642.991 21.9934 643 29.9281V57.1354C642.991 65.0701 639.835 72.6772 634.224 78.2878C628.614 83.8985 621.007 87.0545 613.072 87.0635V87.0635ZM29.9281 1.81381C22.4743 1.82226 15.3282 4.78702 10.0576 10.0576C4.787 15.3282 1.82225 22.4743 1.8138 29.9281V57.1354C1.82225 64.5892 4.787 71.7352 10.0576 77.0058C15.3282 82.2764 22.4743 85.2412 29.9281 85.2496H613.072C620.526 85.2412 627.672 82.2764 632.942 77.0058C638.213 71.7352 641.178 64.5892 641.186 57.1354V29.9281C641.178 22.4743 638.213 15.3282 632.942 10.0576C627.672 4.78702 620.526 1.82226 613.072 1.81381H29.9281Z" fill="#3F3D56"/>
<path d="M461.618 26.3005H74.3667C64.8501 26.3005 57.1354 34.0152 57.1354 43.5318V43.5319C57.1354 53.0484 64.8501 60.7632 74.3667 60.7632H461.618C471.134 60.7632 478.849 53.0484 478.849 43.5318C478.849 34.0152 471.134 26.3005 461.618 26.3005Z" fill="#E6E6E6"/>
<path d="M512.405 177.43H125.154C115.637 177.43 107.922 185.145 107.922 194.661V194.662C107.922 204.178 115.637 211.893 125.154 211.893H512.405C521.921 211.893 529.636 204.178 529.636 194.661C529.636 185.145 521.921 177.43 512.405 177.43Z" fill="#FF7575"/>
<path d="M512.405 287.004H125.154C115.637 287.004 107.922 294.719 107.922 304.235V304.235C107.922 313.752 115.637 321.467 125.154 321.467H512.405C521.921 321.467 529.636 313.752 529.636 304.235C529.636 294.719 521.921 287.004 512.405 287.004Z" fill="#E6E6E6"/>
<path d="M512.405 396.578H125.154C115.637 396.578 107.922 404.293 107.922 413.81V413.81C107.922 423.326 115.637 431.041 125.154 431.041H512.405C521.921 431.041 529.636 423.326 529.636 413.81C529.636 404.293 521.921 396.578 512.405 396.578Z" fill="#E6E6E6"/>
<path d="M586.312 62.1474C585.899 62.7371 585.269 63.1385 584.56 63.2635C583.852 63.3885 583.122 63.2268 582.532 62.814L567.726 52.5112C567.136 52.0984 566.735 51.4682 566.61 50.7593C566.485 50.0505 566.646 49.321 567.059 48.7313C567.472 48.1417 568.102 47.7402 568.811 47.6152C569.52 47.4902 570.249 47.6519 570.839 48.0648L585.646 58.3675C586.235 58.7804 586.637 59.4106 586.762 60.1195C586.887 60.8283 586.725 61.5578 586.312 62.1474Z" fill="#FF7575"/>
<path d="M569.502 50.442C567.317 53.5635 564.255 55.9667 560.703 57.3479C557.152 58.729 553.27 59.026 549.55 58.2013C545.83 57.3766 542.438 55.4672 539.802 52.7146C537.167 49.962 535.408 46.4898 534.746 42.7371C534.084 38.9844 534.55 35.1197 536.085 31.6318C537.619 28.1439 540.154 25.1894 543.368 23.142C546.582 21.0945 550.33 20.046 554.14 20.1291C557.95 20.2122 561.649 21.4231 564.771 23.6087C568.952 26.5433 571.798 31.0165 572.685 36.047C573.572 41.0774 572.428 46.2544 569.502 50.442ZM541.883 31.1032C540.244 33.4443 539.336 36.2189 539.273 39.0762C539.211 41.9334 539.997 44.745 541.533 47.1553C543.069 49.5657 545.284 51.4665 547.9 52.6175C550.516 53.7685 553.415 54.1179 556.229 53.6216C559.044 53.1253 561.648 51.8056 563.712 49.8292C565.777 47.8529 567.209 45.3088 567.827 42.5186C568.446 39.7284 568.223 36.8174 567.187 34.1538C566.152 31.4902 564.349 29.1936 562.008 27.5544C558.867 25.3605 554.985 24.5021 551.212 25.1674C547.439 25.8327 544.084 27.9674 541.883 31.1032V31.1032Z" fill="#FF7575"/>
<path d="M596.294 228.332H46.7059C46.4654 228.332 46.2347 228.237 46.0646 228.067C45.8945 227.897 45.799 227.666 45.799 227.425C45.799 227.185 45.8945 226.954 46.0646 226.784C46.2347 226.614 46.4654 226.519 46.7059 226.519H596.294C596.535 226.519 596.765 226.614 596.935 226.784C597.105 226.954 597.201 227.185 597.201 227.425C597.201 227.666 597.105 227.897 596.935 228.067C596.765 228.237 596.535 228.332 596.294 228.332Z" fill="#3F3D56"/>
<path d="M596.294 337.951H46.7059C46.4654 337.951 46.2347 337.856 46.0646 337.686C45.8945 337.516 45.799 337.285 45.799 337.045C45.799 336.804 45.8945 336.573 46.0646 336.403C46.2347 336.233 46.4654 336.138 46.7059 336.138H596.294C596.535 336.138 596.765 336.233 596.935 336.403C597.105 336.573 597.201 336.804 597.201 337.045C597.201 337.285 597.105 337.516 596.935 337.686C596.765 337.856 596.535 337.951 596.294 337.951V337.951Z" fill="#3F3D56"/>
<path d="M596.294 447.57H46.7059C46.4654 447.57 46.2347 447.475 46.0646 447.305C45.8945 447.134 45.799 446.904 45.799 446.663C45.799 446.423 45.8945 446.192 46.0646 446.022C46.2347 445.852 46.4654 445.756 46.7059 445.756H596.294C596.535 445.756 596.765 445.852 596.935 446.022C597.105 446.192 597.201 446.423 597.201 446.663C597.201 446.904 597.105 447.134 596.935 447.305C596.765 447.475 596.535 447.57 596.294 447.57V447.57Z" fill="#3F3D56"/>
</g>
<defs>
<clipPath id="clip0_116_14">
<rect width="643" height="447.57" fill="white"/>
</clipPath>
</defs>
</svg>
